<?xml version="1.0" standalone="no"?>
<!DOCTYPE svg PUBLIC "-//W3C//DTD SVG 20010904//EN"
 "http://www.w3.org/TR/2001/REC-SVG-20010904/DTD/svg10.dtd">
<svg version="1.0" xmlns="http://www.w3.org/2000/svg"
 width="800.000000pt" height="800.000000pt" viewBox="0 0 800.000000 800.000000"
 preserveAspectRatio="xMidYMid meet">
<metadata>
Created by potrace 1.11, written by Peter Selinger 2001-2013
</metadata>
<g transform="translate(0.000000,800.000000) scale(0.100000,-0.100000)"
fill="#000000" stroke="none">
<path d="M3622 7440 c-83 -19 -182 -64 -228 -101 -27 -23 -49 -44 -50 -48 0
-3 -9 -24 -18 -46 -43 -94 15 -178 158 -231 28 -10 25 -11 -45 -23 -283 -48
-555 -156 -844 -334 -71 -44 -167 -103 -213 -131 -332 -203 -718 -630 -886
-979 -50 -102 -92 -225 -81 -236 3 -2 15 19 28 47 13 29 28 48 32 44 5 -4 5
-1 1 6 -9 15 44 107 131 232 32 45 65 92 73 104 78 113 280 345 411 471 90 87
133 120 369 280 208 142 408 239 682 330 320 106 625 129 993 75 337 -50 502
-111 792 -293 83 -52 280 -258 386 -405 47 -65 103 -132 126 -150 23 -19 41
-37 39 -42 -3 -8 -242 -170 -251 -170 -7 0 -16 26 -33 87 -18 68 -75 192 -81
176 -2 -7 9 -57 26 -110 79 -257 165 -698 192 -993 22 -242 -2 -606 -62 -925
-40 -215 -79 -355 -155 -556 -42 -112 -92 -247 -111 -299 -20 -52 -39 -98 -42
-103 -4 -4 -15 27 -25 69 -10 43 -34 125 -52 183 -19 58 -34 112 -34 120 0 7
13 30 28 50 53 67 43 77 -15 16 -117 -121 -384 -422 -425 -477 -23 -32 -43
-56 -45 -54 -2 2 1 43 6 92 6 49 17 163 26 254 8 91 24 206 35 255 11 50 42
207 68 350 44 245 48 260 69 263 13 2 30 13 38 25 15 21 14 23 -14 47 l-29 25
24 130 c14 72 40 211 60 310 63 326 108 869 74 890 -5 3 -10 0 -10 -7 -1 -7
-5 -44 -10 -83 -11 -82 -50 -460 -50 -485 0 -12 -22 -26 -73 -47 l-73 -30 -16
51 c-23 68 -136 463 -203 709 -30 110 -64 219 -75 243 -17 39 -18 59 -13 160
5 97 4 114 -8 109 -9 -3 -19 -34 -27 -86 -39 -243 -135 -615 -214 -822 -29
-75 -33 -81 -92 -118 -33 -21 -66 -43 -72 -48 -7 -5 -15 -7 -18 -4 -3 4 -6 1
-6 -6 0 -8 -7 -11 -15 -7 -8 3 -15 1 -15 -4 0 -16 26 -12 86 15 32 14 59 23
62 21 12 -12 -137 -276 -220 -390 -3 -5 -60 46 -125 113 -131 135 -141 140
-180 82 -25 -37 -30 -80 -11 -99 17 -17 28 -15 28 7 0 11 5 32 10 47 l11 27
97 -95 c125 -122 145 -135 178 -118 56 31 177 206 272 395 43 86 57 104 97
129 60 37 195 164 219 207 l20 34 -25 -22 c-69 -63 -218 -177 -224 -171 -2 1
17 63 41 137 24 73 58 204 75 290 17 86 33 167 37 181 l6 25 4 -25 c17 -106
127 -507 197 -717 47 -141 85 -259 85 -263 0 -4 -21 -17 -47 -28 -133 -58
-460 -214 -553 -263 -58 -30 -126 -66 -153 -78 -50 -24 -77 -61 -77 -105 0
-46 8 -49 525 -187 143 -38 277 -72 298 -75 20 -4 37 -8 37 -9 0 -8 -112 -560
-114 -562 -1 -2 -79 -28 -172 -59 -118 -39 -266 -76 -497 -125 -294 -62 -347
-71 -498 -79 -93 -5 -188 -7 -211 -5 -24 2 -82 7 -130 10 -247 15 -532 112
-714 241 -94 67 -206 190 -245 269 -44 90 -51 201 -20 350 11 55 25 138 31
185 15 113 63 392 107 621 l36 186 116 155 c64 86 143 186 176 223 33 37 75
88 92 113 18 25 33 42 33 38 0 -4 -15 -71 -34 -149 -49 -202 -67 -330 -73
-502 -2 -82 -5 -155 -5 -162 -1 -14 -41 12 -73 47 -57 63 -156 105 -163 68 -4
-22 47 -77 325 -348 144 -141 237 -238 230 -241 -7 -4 -47 -14 -91 -23 -81
-17 -481 -125 -551 -149 -32 -11 -40 -19 -40 -38 0 -18 6 -25 26 -27 22 -3
353 75 663 156 116 31 132 43 115 89 -4 12 -104 116 -221 231 l-212 209 16 40
c8 22 50 101 93 177 76 135 77 137 93 114 9 -13 21 -27 27 -33 6 -5 19 -23 29
-38 10 -17 23 -26 31 -23 10 3 12 0 8 -11 -5 -13 -2 -15 11 -10 9 4 15 3 12
-2 -3 -4 6 -19 19 -31 l25 -23 0 21 c0 14 -6 22 -17 22 -9 0 -13 3 -10 6 8 8
-44 50 -56 46 -5 -1 -5 2 -2 8 4 7 -2 21 -13 33 -34 37 -54 95 -41 120 31 58
140 229 321 500 115 172 196 303 192 310 -5 9 -4 9 6 0 11 -10 10 -32 -9 -125
-56 -289 -54 -523 5 -757 28 -111 110 -284 136 -287 16 -2 16 0 -1 34 -31 61
-71 199 -93 322 -31 170 -31 480 0 680 12 80 27 161 32 180 34 132 46 190 40
200 -6 9 -9 9 -15 0 -4 -6 -5 -14 -1 -17 3 -3 -1 -12 -9 -19 -7 -8 -23 -45
-35 -83 -16 -51 -36 -86 -72 -128 -129 -150 -342 -449 -463 -648 -36 -61 -70
-114 -75 -119 -12 -12 -28 31 -38 98 l-8 51 -8 -39 c-5 -27 -2 -60 9 -105 l17
-66 -67 -130 c-37 -71 -68 -131 -69 -132 -1 -1 -1 19 1 45 5 99 123 638 173
795 38 119 42 137 29 137 -10 0 -69 -116 -69 -137 0 -6 -12 -26 -27 -44 -16
-18 -21 -29 -13 -25 18 10 -30 -43 -152 -169 -333 -345 -797 -1060 -731 -1126
7 -7 12 2 16 26 7 42 212 374 224 362 2 -2 -4 -21 -13 -43 -32 -75 -103 -293
-133 -406 -72 -277 -110 -516 -131 -843 -14 -209 -10 -571 6 -598 8 -14 13 38
18 215 10 332 40 601 107 938 59 298 175 691 258 870 27 59 26 50 -8 -88 -43
-169 -68 -285 -101 -472 -17 -91 -39 -205 -50 -255 -26 -118 -26 -234 0 -318
26 -84 101 -196 182 -274 l66 -62 -54 -48 c-86 -74 -240 -267 -320 -398 -25
-42 -44 -78 -42 -81 12 -11 37 12 90 84 62 83 208 242 209 226 0 -5 5 0 10 11
9 19 9 19 5 -1 -5 -30 2 -36 54 -55 31 -11 46 -22 48 -37 5 -35 27 -43 134
-51 138 -11 201 -38 260 -115 46 -59 60 -65 96 -40 22 15 31 12 195 -59 95
-41 179 -77 187 -79 11 -4 21 -36 34 -104 9 -55 23 -121 31 -149 7 -27 28
-108 45 -180 24 -96 50 -168 100 -275 38 -80 76 -170 85 -200 17 -55 17 -55
-16 -185 -30 -119 -33 -143 -33 -288 l-1 -159 45 -39 c25 -22 75 -58 112 -82
37 -23 66 -46 64 -52 -4 -14 31 -107 146 -375 130 -304 169 -379 225 -431 44
-40 47 -41 102 -37 83 6 113 24 128 78 21 71 49 256 74 491 l23 216 106 22
c121 26 272 74 394 127 l84 37 34 -26 c82 -61 437 -229 669 -316 l136 -51 54
18 c44 15 59 27 87 68 29 42 33 54 28 88 -12 70 -75 199 -146 296 -38 52 -99
139 -134 192 -36 53 -82 114 -104 136 l-40 40 47 70 c25 39 55 85 65 104 11
18 40 67 64 108 84 142 107 223 79 277 -13 24 -31 34 -109 61 -132 44 -355
101 -416 106 -52 4 -53 4 -101 72 -55 79 -186 206 -302 295 -43 33 -79 64 -79
69 0 10 18 13 56 11 25 -2 202 36 255 54 40 14 40 14 60 -18 11 -18 22 -44 26
-60 6 -31 21 -45 27 -25 13 50 31 97 46 118 9 14 23 41 30 60 7 19 40 95 72
168 32 73 67 158 78 190 16 47 19 52 20 27 0 -16 11 -73 25 -125 14 -52 25
-105 25 -117 1 -83 158 87 290 312 29 50 59 100 67 113 10 16 23 22 48 22 45
0 160 25 207 44 61 26 68 23 56 -25 -8 -28 -7 -65 1 -122 18 -130 14 -237 -10
-302 -12 -31 -26 -58 -33 -61 -7 -3 -46 7 -87 21 -41 13 -79 25 -85 25 -6 0
-45 -16 -85 -35 -41 -19 -63 -32 -50 -29 14 4 21 2 18 -3 -4 -6 15 -6 50 0 43
7 71 6 128 -8 138 -32 193 2 220 135 10 49 14 55 42 61 54 11 123 50 172 98
122 119 128 262 13 299 -40 13 -65 10 -168 -23 -21 -7 -21 -6 -9 62 7 37 18
82 26 98 17 37 17 369 0 489 -10 70 -9 82 6 105 10 14 22 33 28 42 5 9 33 44
60 78 109 135 189 298 219 443 33 158 15 277 -72 493 -53 132 -57 145 -57 225
0 78 5 99 63 267 34 100 62 193 62 207 0 61 -85 58 -265 -9 -158 -59 -447
-201 -570 -281 -20 -13 -25 -7 -95 108 -151 247 -272 372 -499 515 -266 167
-538 280 -731 303 -41 4 -123 15 -181 24 -58 8 -166 16 -240 17 -193 2 -319
36 -403 110 -36 31 -38 36 -33 77 7 62 59 112 174 168 50 24 101 44 112 44 12
0 21 5 21 11 0 5 4 7 10 4 6 -3 7 1 4 9 -7 17 -12 18 -62 6z m2627 -1275
c-101 -276 -102 -338 -10 -563 64 -156 85 -250 78 -347 -13 -169 -72 -305
-226 -523 -56 -79 -101 -147 -101 -152 0 -4 -7 -13 -15 -20 -12 -10 -27 -7
-80 15 -36 16 -65 30 -65 32 0 2 22 43 48 91 116 208 211 392 238 457 23 58
28 84 28 155 -1 104 -10 130 -116 324 -80 147 -81 149 -75 205 4 31 22 110 42
176 20 66 34 128 31 138 -2 9 0 15 4 12 5 -3 11 9 15 26 6 26 17 35 62 55 49
22 185 64 190 60 2 -1 -20 -65 -48 -141z m-1599 -1312 c-12 -59 -23 -119 -26
-133 -4 -19 -12 -3 -30 65 -42 155 -43 139 17 171 36 20 55 25 57 17 2 -6 -6
-61 -18 -120z m-111 25 c5 -18 15 -60 21 -92 7 -33 21 -79 31 -104 20 -45 20
-46 -1 -151 -21 -109 -39 -181 -43 -181 -2 0 -90 22 -197 50 -179 46 -430 109
-524 132 -21 5 -36 11 -35 12 8 7 724 366 731 366 3 0 11 -15 17 -32z m1161
-299 c80 -32 187 -68 238 -80 l92 -21 0 -145 c0 -80 -7 -202 -16 -272 -25
-204 -21 -191 -52 -191 -15 0 -76 -14 -137 -30 -114 -31 -165 -37 -165 -20 0
5 27 91 59 190 32 99 57 190 54 200 -10 38 -29 20 -41 -38 -21 -100 -298 -626
-410 -777 l-37 -50 -3 40 c-1 22 -9 113 -17 202 l-15 161 34 110 c59 186 102
458 113 708 l6 141 76 -34 c42 -19 141 -62 221 -94z m535 -803 c22 -33 11 -84
-27 -130 -28 -34 -163 -141 -192 -152 -9 -3 -15 25 -22 110 -5 63 -6 112 -1
109 4 -2 12 9 18 26 9 25 20 34 57 45 26 8 71 15 99 15 45 1 55 -3 68 -23z
m-1840 -232 c-26 -147 -26 -147 -41 -79 -7 33 -13 79 -14 103 0 39 3 44 33 57
17 7 33 12 35 10 2 -1 -4 -43 -13 -91z m-2262 70 c3 -4 -3 -24 -14 -46 -11
-22 -23 -62 -26 -89 -3 -27 -10 -49 -14 -49 -5 0 -23 13 -41 29 l-32 28 55 66
c54 67 60 72 72 61z m108 -72 c34 -21 66 -45 70 -53 20 -36 77 -169 73 -169
-3 0 -19 6 -37 13 -18 7 -72 14 -122 16 -49 2 -91 4 -93 5 -5 6 35 226 42 226
2 0 32 -17 67 -38z m1848 -71 c-30 -49 -138 -142 -214 -184 -16 -9 -83 -23
-148 -31 -64 -8 -122 -18 -128 -22 -25 -15 14 -19 142 -14 132 5 138 6 187 37
29 18 52 30 52 28 0 -3 -14 -32 -32 -65 -29 -57 -35 -61 -84 -76 -61 -18 -253
-44 -271 -37 -7 3 -13 18 -13 34 0 16 -7 46 -15 67 -16 36 -16 37 12 57 15 11
48 38 74 60 25 22 63 55 84 73 30 26 63 39 154 63 64 17 134 39 156 49 85 37
89 33 44 -39z m-1485 -77 l58 -16 -35 -37 c-19 -20 -48 -58 -65 -85 l-30 -49
-27 49 c-16 27 -45 76 -65 109 -70 113 -72 107 23 74 45 -16 108 -36 141 -45z
m2247 -119 c12 -60 24 -121 26 -135 4 -24 2 -26 -69 -38 -40 -8 -126 -27 -190
-44 -65 -16 -125 -28 -134 -26 -13 2 6 29 71 103 48 55 126 149 174 208 l86
108 7 -33 c4 -18 17 -82 29 -143z m-1186 125 c-8 -13 -126 -95 -148 -103 -13
-5 -31 5 -60 32 l-42 39 50 7 c28 4 79 13 115 20 83 17 93 17 85 5z m-739 -55
l91 -7 -8 -41 c-4 -23 -10 -78 -13 -122 -4 -44 -9 -94 -12 -112 l-5 -31 -167
80 c-92 43 -171 83 -175 88 -9 8 23 63 75 131 27 35 29 36 75 29 26 -4 89 -11
139 -15z m487 -38 l35 -54 -75 -9 c-86 -11 -108 -3 -162 62 l-32 39 63 6 c140
13 131 15 171 -44z m-20 -156 c13 -65 8 -70 -55 -58 -29 5 -57 13 -61 17 -9 8
-27 77 -22 82 2 2 32 3 67 2 l63 0 8 -43z m1912 -1403 c225 -315 288 -417 325
-522 16 -44 16 -53 3 -85 -22 -55 -47 -72 -86 -59 -18 6 -41 17 -53 25 -11 7
-45 21 -75 32 -153 53 -301 119 -365 162 -39 26 -115 72 -170 103 -54 31 -94
56 -88 56 31 0 264 169 352 255 53 52 100 95 105 95 4 0 28 -28 52 -62z
m-1705 -511 c62 -17 108 -20 273 -21 193 -1 198 -2 193 -21 -10 -39 -65 -442
-71 -515 -3 -41 -8 -97 -11 -125 l-5 -50 -64 -2 c-62 -1 -66 0 -95 33 -16 19
-30 42 -30 51 0 8 -9 30 -19 47 -29 47 -184 387 -231 506 -23 58 -44 111 -48
119 -4 11 -1 13 14 6 10 -4 53 -17 94 -28z"/>
<path d="M2611 7273 c-23 -57 -32 -102 -46 -237 -17 -160 -19 -302 -4 -248 17
57 89 494 83 503 -10 16 -21 9 -33 -18z"/>
<path d="M3265 7262 c-71 -73 -66 -155 12 -206 40 -26 52 -29 93 -27 21 2 19
5 -18 19 -23 10 -51 25 -61 34 -11 9 -22 14 -25 11 -9 -9 -18 67 -12 101 4 19
14 37 22 40 10 4 14 13 10 22 -3 8 -2 13 3 10 4 -3 16 1 26 8 16 11 16 13 2
19 -10 4 -29 -7 -52 -31z"/>
<path d="M1826 6995 c-3 -9 -6 -27 -6 -40 0 -19 -9 -27 -46 -41 -53 -20 -94
-50 -94 -69 0 -23 53 -37 114 -30 52 6 56 6 56 -14 0 -12 -13 -34 -30 -49 -16
-15 -30 -34 -31 -42 -6 -54 11 -85 52 -95 36 -9 69 26 69 72 0 32 1 33 43 33
23 0 60 -5 82 -10 45 -10 53 -7 35 15 -21 25 -68 46 -118 54 -38 5 -47 10 -52
32 -6 22 -3 28 27 44 72 39 62 87 -19 89 -39 1 -43 3 -48 30 -6 33 -24 45 -34
21z m30 -322 c-11 -11 -19 6 -11 24 8 17 8 17 12 0 3 -10 2 -21 -1 -24z"/>
<path d="M2395 6961 c-27 -10 -59 -21 -70 -25 -178 -70 -208 -88 -166 -99 41
-10 311 107 311 135 0 11 -18 8 -75 -11z"/>
<path d="M1175 6910 c-4 -6 -5 -33 -4 -61 3 -49 2 -51 -34 -72 -22 -13 -37
-28 -37 -40 0 -20 8 -20 68 -2 30 10 28 -3 -8 -45 -16 -19 -31 -38 -31 -42 -5
-28 -4 -35 3 -50 10 -20 48 -24 65 -7 9 9 14 5 19 -17 18 -80 47 -164 56 -164
11 0 5 131 -8 197 -5 27 -1 32 48 66 75 51 101 56 118 20 7 -15 16 -61 19
-102 9 -117 33 -102 60 39 27 136 -63 211 -175 146 l-41 -23 5 22 c2 13 -1 33
-8 45 -9 17 -18 21 -40 17 -26 -6 -29 -3 -39 38 -11 44 -23 56 -36 35z"/>
<path d="M1602 6898 c-37 -37 29 -313 85 -360 7 -6 15 -9 18 -7 2 3 -14 76
-36 164 -21 87 -39 171 -39 187 0 30 -9 35 -28 16z"/>
<path d="M740 6562 c0 -5 33 -32 73 -60 39 -28 83 -60 97 -71 14 -12 31 -21
38 -21 6 0 12 -4 12 -10 0 -5 4 -10 9 -10 5 0 35 -16 67 -36 84 -50 243 -128
249 -122 6 6 -107 83 -340 231 -143 91 -205 121 -205 99z"/>
<path d="M1877 5808 c-13 -18 -37 -52 -51 -75 -15 -22 -51 -57 -79 -76 -29
-19 -95 -76 -147 -126 -72 -68 -90 -90 -74 -91 11 0 29 8 40 18 95 85 172 152
176 152 3 0 -10 -40 -28 -89 -40 -105 -79 -257 -93 -357 -28 -195 -21 -448 12
-482 12 -11 15 10 20 135 15 343 79 601 233 930 40 84 35 119 -9 61z"/>
<path d="M3764 4717 c-66 -29 -98 -51 -93 -64 5 -15 126 30 164 62 l30 24 -25
0 c-14 0 -48 -10 -76 -22z"/>
<path d="M2750 4715 c0 -8 5 -15 11 -15 5 0 7 -5 4 -10 -4 -6 -3 -9 2 -8 4 1
27 -17 49 -40 23 -23 47 -42 53 -42 23 0 9 25 -42 77 -55 54 -77 65 -77 38z"/>
<path d="M1513 4318 c-38 -52 -96 -275 -122 -473 -13 -96 -1 -629 14 -644 7
-6 11 87 13 272 3 345 21 500 87 757 24 95 26 111 8 88z"/>
<path d="M6477 4208 c12 -35 14 -75 9 -208 -13 -361 -31 -540 -81 -845 -5 -27
-4 -28 5 -7 15 36 58 261 76 402 22 175 30 602 12 654 -7 22 -18 41 -25 43 -7
3 -6 -10 4 -39z"/>
<path d="M3232 4145 c-86 -19 -160 -55 -204 -100 -88 -89 -103 -250 -38 -395
38 -85 56 -108 89 -115 l23 -4 -24 22 c-15 14 -37 61 -57 121 -28 84 -33 110
-29 165 7 89 53 174 88 163 7 -3 10 0 7 5 -11 17 130 7 148 -11 15 -15 29 -20
47 -17 4 0 4 -7 1 -16 -5 -13 -2 -15 11 -10 11 5 15 3 10 -5 -5 -8 -1 -9 12
-4 10 4 64 14 120 23 91 14 109 14 177 0 114 -23 163 -48 170 -86 10 -49 -9
-129 -52 -216 -22 -44 -38 -81 -36 -83 6 -6 49 20 69 42 10 12 30 46 45 76 22
46 26 69 26 140 0 97 -12 127 -77 192 -103 103 -339 153 -526 113z"/>
<path d="M1246 3758 c-8 -31 -6 -200 4 -268 5 -40 8 -8 9 118 0 94 -1 172 -3
172 -2 0 -6 -10 -10 -22z"/>
<path d="M6670 3425 c-18 -91 -31 -168 -28 -170 6 -7 56 208 64 278 12 104 -3
59 -36 -108z"/>
<path d="M5510 3245 c-14 -17 -45 -21 -35 -5 3 6 2 10 -4 10 -5 0 -13 -4 -16
-10 -3 -5 -24 -10 -45 -10 -31 0 -132 -28 -307 -85 -15 -5 -17 -25 -3 -25 6 0
10 4 10 9 0 5 8 7 18 4 10 -2 82 14 161 36 78 22 158 43 177 47 19 3 37 10 39
15 3 4 13 6 23 3 13 -5 14 -4 3 4 -11 8 -10 11 5 15 14 4 15 5 3 6 -9 0 -22
-6 -29 -14z"/>
<path d="M6631 3224 c0 -11 3 -14 6 -6 3 7 2 16 -1 19 -3 4 -6 -2 -5 -13z"/>
</g>
</svg>
